<svg width="15" height="13" viewBox="0 0 15 13" fill="none" xmlns="http://www.w3.org/2000/svg">
<path fill-rule="evenodd" clip-rule="evenodd" d="M1.03117 5.59642C5.05769 3.76182 7.74268 2.55233 9.08611 1.96797C12.9219 0.299503 13.7189 0.00967244 14.2384 0.000102042C14.3527 -0.00200286 14.6082 0.0276103 14.7737 0.168038C14.9134 0.286613 14.9518 0.44679 14.9702 0.559212C14.9886 0.671633 15.0115 0.927733 14.9933 1.12784C14.7855 3.41185 13.8861 8.95454 13.4285 11.5127C13.2349 12.5951 12.8536 12.958 12.4845 12.9936C11.6824 13.0707 11.0734 12.4392 10.2965 11.9067C9.08085 11.0733 8.39409 10.5545 7.21409 9.74133C5.8504 8.80154 6.73442 8.28502 7.51159 7.44087C7.71497 7.21995 11.249 3.8583 11.3174 3.55334C11.326 3.5152 11.3339 3.37304 11.2532 3.29797C11.1724 3.2229 11.0532 3.24857 10.9672 3.26899C10.8453 3.29792 8.90325 4.64029 5.14115 7.29607C4.58991 7.69192 4.09062 7.88479 3.64327 7.87468C3.15011 7.86354 2.20146 7.58307 1.49623 7.34334C0.631245 7.04929 -0.0562297 6.89383 0.00363389 6.39445C0.0348146 6.13434 0.377327 5.86833 1.03117 5.59642Z" fill="#E6E6E6"/>
</svg>
