<svg width="17" height="13" viewBox="0 0 17 13" fill="none" xmlns="http://www.w3.org/2000/svg">
<path fill-rule="evenodd" clip-rule="evenodd" d="M17 1.54375C16.3744 1.79766 15.6948 1.98047 14.9937 2.05156C15.7164 1.64531 16.2665 1.00547 16.5254 0.24375C15.8566 0.619531 15.1015 0.89375 14.3141 1.03594C13.6777 0.396094 12.7716 0 11.7684 0C9.83756 0 8.28426 1.47266 8.28426 3.28047C8.28426 3.53437 8.31662 3.78828 8.37056 4.03203C5.4797 3.88984 2.90165 2.58984 1.18655 0.599219C0.884518 1.08672 0.711929 1.64531 0.711929 2.25469C0.711929 3.39219 1.32678 4.39766 2.26523 4.98672C1.69353 4.96641 1.15419 4.81406 0.690355 4.57031C0.690355 4.58047 0.690355 4.60078 0.690355 4.61094C0.690355 6.20547 1.88769 7.52578 3.48414 7.83047C3.19289 7.90156 2.88008 7.94219 2.56726 7.94219C2.34074 7.94219 2.125 7.92187 1.90926 7.89141C2.35152 9.19141 3.63515 10.1359 5.16688 10.1664C3.96954 11.05 2.47018 11.568 0.841371 11.568C0.550127 11.568 0.280457 11.5578 0 11.5273C1.54251 12.4617 3.37627 13 5.35025 13C11.7576 13 15.2633 8.00313 15.2633 3.66641C15.2633 3.52422 15.2633 3.38203 15.2525 3.23984C15.9321 2.77266 16.5254 2.19375 17 1.54375Z" fill="#E6E6E6"/>
</svg>
